{
  "accessors": [
    {
      "bufferView": 1,
      "componentType": 5126,
      "count": 750,
      "max": [
        2.0810422897338867,
        11.455659866333008,
        4.1259336471557617
      ],
      "min": [
        -2.8772628307342529,
        0.46381223201751709,
        -0.448699951171875
      ],
      "type": "VEC3"
    },
    {
      "bufferView": 1,
      "byteOffset": 9000,
      "componentType": 5126,
      "count": 750,
      "max": [
        1,
        1,
        0.96700370311737061
      ],
      "min": [
        -1,
        -1,
        -1
      ],
      "type": "VEC3"
    },
    {
      "bufferView": 2,
      "componentType": 5126,
      "count": 750,
      "max": [
        1,
        1,
        1,
        1
      ],
      "min": [
        -0.96581071615219116,
        -1,
        -1,
        -1
      ],
      "type": "VEC4"
    },
    {
      "bufferView": 0,
      "componentType": 5125,
      "count": 2031,
      "max": [
        749
      ],
      "min": [
        0
      ],
      "type": "SCALAR"
    },
    {
      "bufferView": 3,
      "componentType": 5126,
      "count": 1,
      "max": [
        0.041666667908430099
      ],
      "min": [
        0.041666667908430099
      ],
      "type": "SCALAR"
    },
    {
      "bufferView": 4,
      "componentType": 5126,
      "count": 1,
      "max": [
        -0.39506357908248901,
        0.32592746615409851,
        1.3848097324371338
      ],
      "min": [
        -0.39506357908248901,
        0.32592746615409851,
        1.3848097324371338
      ],
      "type": "VEC3"
    },
    {
      "bufferView": 3,
      "byteOffset": 4,
      "componentType": 5126,
      "count": 1,
      "max": [
        0.041666667908430099
      ],
      "min": [
        0.041666667908430099
      ],
      "type": "SCALAR"
    },
    {
      "bufferView": 5,
      "componentType": 5126,
      "count": 1,
      "max": [
        0,
        0,
        0,
        1
      ],
      "min": [
        0,
        0,
        0,
        1
      ],
      "type": "VEC4"
    }
  ],
  "animations": [
    {
      "channels": [
        {
          "sampler": 0,
          "target": {
            "node": 5,
            "path": "translation"
          }
        },
        {
          "sampler": 1,
          "target": {
            "node": 5,
            "path": "rotation"
          }
        }
      ],
      "name": "Take 001",
      "samplers": [
        {
          "input": 4,
          "interpolation": "LINEAR",
          "output": 5
        },
        {
          "input": 6,
          "interpolation": "LINEAR",
          "output": 7
        }
      ]
    }
  ],
  "asset": {
    "generator": "Sketchfab (OSG glTF plugin)",
    "version": "2.0"
  },
  "bufferViews": [
    {
      "buffer": 0,
      "byteLength": 8124,
      "byteOffset": 0,
      "name": "floatBufferViews",
      "target": 34963
    },
    {
      "buffer": 0,
      "byteLength": 18000,
      "byteOffset": 8124,
      "byteStride": 12,
      "name": "floatBufferViews",
      "target": 34962
    },
    {
      "buffer": 0,
      "byteLength": 12000,
      "byteOffset": 26124,
      "byteStride": 16,
      "name": "floatBufferViews",
      "target": 34962
    },
    {
      "buffer": 0,
      "byteLength": 8,
      "byteOffset": 38124,
      "name": "floatBufferViews"
    },
    {
      "buffer": 0,
      "byteLength": 12,
      "byteOffset": 38132,
      "byteStride": 12,
      "name": "floatBufferViews"
    },
    {
      "buffer": 0,
      "byteLength": 16,
      "byteOffset": 38144,
      "byteStride": 16,
      "name": "floatBufferViews"
    }
  ],
  "buffers": [
    {
      "byteLength": 38160,
      "uri": "scene.bin"
    }
  ],
  "materials": [
    {
      "doubleSided": true,
      "emissiveFactor": [
        0,
        0,
        0
      ],
      "name": "lambert1",
      "pbrMetallicRoughness": {
        "baseColorFactor": [
          1,
          1,
          1,
          1
        ],
        "metallicFactor": 0,
        "roughnessFactor": 0.59999999999999998
      }
    }
  ],
  "meshes": [
    {
      "name": "pCube5_lambert1_0",
      "primitives": [
        {
          "attributes": {
            "NORMAL": 1,
            "POSITION": 0,
            "TANGENT": 2
          },
          "indices": 3,
          "material": 0,
          "mode": 4
        }
      ]
    }
  ],
  "nodes": [
    {
      "children": [
        1
      ],
      "name": "RootNode (gltf orientation matrix)",
      "rotation": [
        -0.70710678118654746,
        -0,
        -0,
        0.70710678118654757
      ]
    },
    {
      "children": [
        2
      ],
      "name": "RootNode (model correction matrix)"
    },
    {
      "children": [
        3
      ],
      "matrix": [
        1,
        0,
        0,
        0,
        0,
        0,
        1,
        0,
        0,
        -1,
        0,
        0,
        0,
        0,
        0,
        1
      ],
      "name": "d6fc1706383240cfaf14d1b6495e163d.fbx"
    },
    {
      "children": [
        4
      ],
      "name": ""
    },
    {
      "children": [
        5,
        7,
        9,
        11,
        13,
        15,
        17,
        19,
        21,
        23,
        25,
        27,
        29
      ],
      "name": "RootNode"
    },
    {
      "children": [
        6
      ],
      "name": "pCylinder1",
      "rotation": [
        0,
        0.38268348574638367,
        0,
        0.92387962341308594
      ],
      "scale": [
        1.2451968193054199,
        0.57832467555999756,
        1.2451968193054199
      ],
      "translation": [
        -0.39506357908248901,
        6.0433578491210938,
        1.3848097324371338
      ]
    },
    {
      "name": "transform2",
      "rotation": [
        0,
        2.7755575615628914e-17,
        0,
        1
      ]
    },
    {
      "children": [
        8
      ],
      "name": "pCylinder2",
      "rotation": [
        0.7071068286895752,
        0,
        0,
        0.7071068286895752
      ],
      "scale": [
        0.57249754667282104,
        0.021445274353027344,
        0.57249754667282104
      ],
      "translation": [
        -0.38663461804389954,
        8.458195686340332,
        0.26769742369651794
      ]
    },
    {
      "name": "transform1"
    },
    {
      "children": [
        10
      ],
      "name": "back",
      "rotation": [
        -0,
        -0.7071068286895752,
        0,
        0.7071068286895752
      ],
      "translation": [
        -2.8600647449493408,
        2.4117727279663086,
        -100.09999847412109
      ]
    },
    {
      "name": ""
    },
    {
      "children": [
        12
      ],
      "name": "pCylinder3"
    },
    {
      "name": "transform4"
    },
    {
      "children": [
        14
      ],
      "name": "pCylinder4",
      "rotation": [
        0.7071068286895752,
        0,
        0,
        0.7071068286895752
      ],
      "scale": [
        0.56944763660430908,
        0.028457846492528915,
        0.57166343927383423
      ],
      "translation": [
        -0.3860892653465271,
        8.4571418762207031,
        0.26887395977973938
      ]
    },
    {
      "name": "transform3"
    },
    {
      "children": [
        16
      ],
      "name": "pCylinder5"
    },
    {
      "name": "transform7"
    },
    {
      "children": [
        18
      ],
      "name": "pCube1",
      "rotation": [
        -0,
        0.7071068286895752,
        0,
        0.7071068286895752
      ],
      "scale": [
        1.3827376365661621,
        0.99863123893737793,
        0.58279520273208618
      ],
      "translation": [
        -3.2235791683197021,
        2.8627269268035889,
        2.9037859439849854
      ]
    },
    {
      "name": "transform6"
    },
    {
      "children": [
        20
      ],
      "name": "pCone1",
      "scale": [
        1.0720982551574707,
        2.1105349063873291,
        1.0720982551574707
      ],
      "translation": [
        -3.2294578552246094,
        2.4515173435211182,
        3.6200623512268066
      ]
    },
    {
      "name": "transform5"
    },
    {
      "children": [
        22
      ],
      "name": "left",
      "rotation": [
        0,
        1.1102230246251565e-16,
        0,
        1
      ],
      "translation": [
        -100.09999847412109,
        0,
        0
      ]
    },
    {
      "name": ""
    },
    {
      "children": [
        24
      ],
      "name": "pCube2",
      "scale": [
        0.88254767656326294,
        0.96406096220016479,
        1
      ],
      "translation": [
        2.4462409019470215,
        0.1350843757390976,
        -0.56622707843780518
      ]
    },
    {
      "name": "transform8"
    },
    {
      "children": [
        26
      ],
      "name": "pCube3",
      "rotation": [
        8.3469452271411237e-17,
        0.86985886096954346,
        8.3469452271411237e-17,
        -0.49330070614814758
      ],
      "scale": [
        0.88254767656326294,
        0.96406096220016479,
        1
      ],
      "translation": [
        -0.20368251204490662,
        0.1350843757390976,
        4.8359217643737793
      ]
    },
    {
      "name": "transform9",
      "rotation": [
        -0,
        2.7755575615628914e-17,
        3.0374470968110588e-33,
        1
      ]
    },
    {
      "children": [
        28
      ],
      "name": "pCube4",
      "rotation": [
        2.1670990539644002e-17,
        0.86156368255615234,
        2.1670990539644002e-17,
        0.50764954090118408
      ],
      "scale": [
        0.88254767656326294,
        0.96406096220016479,
        1
      ],
      "translation": [
        -3.5003232955932617,
        0.1350843757390976,
        -0.17068858444690704
      ]
    },
    {
      "name": "transform10",
      "rotation": [
        4.4605074455787319e-34,
        0,
        4.4162376854782914e-34,
        1
      ]
    },
    {
      "children": [
        30
      ],
      "name": "pCube5"
    },
    {
      "children": [
        31
      ],
      "name": "Geode"
    },
    {
      "mesh": 0,
      "name": "pCube5_lambert1_0"
    }
  ],
  "scene": 0,
  "scenes": [
    {
      "name": "OSG_Scene",
      "nodes": [
        0
      ]
    }
  ]
}

